solid 20210812_office_top_model5
facet normal 0 0 1
outer loop
vertex 8.5 5.571429 2.6
vertex 8.5 6.5 2.6
vertex 7.4375 6.5 2.6
endloop
endfacet
facet normal 0 -0 1
outer loop
vertex 7.4375 6.5 2.6
vertex 7.083333 5.2 2.6
vertex 8.5 5.571429 2.6
endloop
endfacet
facet normal 0 -0 1
outer loop
vertex 7.083333 5.2 2.6
vertex 8.5 5.2 2.6
vertex 8.5 5.571429 2.6
endloop
endfacet
facet normal 0 0 1
outer loop
vertex 5.666667 5.2 2.6
vertex 7.083333 5.2 2.6
vertex 6.375 6.5 2.6
endloop
endfacet
facet normal 0 0 1
outer loop
vertex 7.083333 5.2 2.6
vertex 7.083333 6.5 2.6
vertex 6.375 6.5 2.6
endloop
endfacet
facet normal 0 0 1
outer loop
vertex 4.25 5.2 2.6
vertex 5.666667 5.2 2.6
vertex 5.3125 6.5 2.6
endloop
endfacet
facet normal 0 0 1
outer loop
vertex 5.666667 5.2 2.6
vertex 5.666667 6.5 2.6
vertex 5.3125 6.5 2.6
endloop
endfacet
facet normal 0 0 1
outer loop
vertex 4.25 5.2 2.6
vertex 4.25 6.5 2.6
vertex 3.1875 6.5 2.6
endloop
endfacet
facet normal 0 -0 1
outer loop
vertex 3.1875 6.5 2.6
vertex 2.833333 5.2 2.6
vertex 4.25 5.2 2.6
endloop
endfacet
facet normal 0 0 1
outer loop
vertex 1.416667 5.2 2.6
vertex 2.833333 5.2 2.6
vertex 2.125 6.5 2.6
endloop
endfacet
facet normal 0 0 1
outer loop
vertex 2.833333 5.2 2.6
vertex 2.833333 6.5 2.6
vertex 2.125 6.5 2.6
endloop
endfacet
facet normal 0 0 1
outer loop
vertex 0 5.571429 2.6
vertex 1.416667 5.2 2.6
vertex 1.0625 6.5 2.6
endloop
endfacet
facet normal -0 0 1
outer loop
vertex 1.0625 6.5 2.6
vertex 0 6.5 2.6
vertex 0 5.571429 2.6
endloop
endfacet
facet normal 0 0 1
outer loop
vertex 1.416667 5.2 2.6
vertex 1.416667 6.5 2.6
vertex 1.0625 6.5 2.6
endloop
endfacet
facet normal 0 -0 1
outer loop
vertex 7.083333 3.9 2.6
vertex 8.5 3.9 2.6
vertex 8.5 4.642857 2.6
endloop
endfacet
facet normal -0 0 1
outer loop
vertex 8.5 4.642857 2.6
vertex 7.083333 5.2 2.6
vertex 7.083333 3.9 2.6
endloop
endfacet
facet normal 0 0 1
outer loop
vertex 7.083333 3.9 2.6
vertex 7.083333 5.2 2.6
vertex 5.666667 5.2 2.6
endloop
endfacet
facet normal 0 0 1
outer loop
vertex 5.666667 3.9 2.6
vertex 5.666667 5.2 2.6
vertex 4.25 5.2 2.6
endloop
endfacet
facet normal 0 0 1
outer loop
vertex 4.25 3.9 2.6
vertex 4.25 5.2 2.6
vertex 2.833333 5.2 2.6
endloop
endfacet
facet normal 0 0 1
outer loop
vertex 2.833333 3.9 2.6
vertex 2.833333 5.2 2.6
vertex 1.416667 5.2 2.6
endloop
endfacet
facet normal 0 0 1
outer loop
vertex 1.416667 3.9 2.6
vertex 1.416667 5.2 2.6
vertex 0 4.642857 2.6
endloop
endfacet
facet normal -0 0 1
outer loop
vertex 1.416667 5.2 2.6
vertex 0 5.2 2.6
vertex 0 4.642857 2.6
endloop
endfacet
facet normal 0 -0 1
outer loop
vertex 7.083333 2.6 2.6
vertex 8.5 2.785714 2.6
vertex 8.5 3.714286 2.6
endloop
endfacet
facet normal -0 0 1
outer loop
vertex 8.5 3.714286 2.6
vertex 7.083333 3.9 2.6
vertex 7.083333 2.6 2.6
endloop
endfacet
facet normal 0 -0 1
outer loop
vertex 7.083333 2.6 2.6
vertex 8.5 2.6 2.6
vertex 8.5 2.785714 2.6
endloop
endfacet
facet normal 0 -0 1
outer loop
vertex 5.666667 3.9 2.6
vertex 5.925 3.425 2.6
vertex 6.275 3.425 2.6
endloop
endfacet
facet normal 0 -0 1
outer loop
vertex 5.666667 2.6 2.6
vertex 5.925 3.075 2.6
vertex 5.925 3.425 2.6
endloop
endfacet
facet normal 0 0 1
outer loop
vertex 5.666667 2.6 2.6
vertex 7.083333 2.6 2.6
vertex 6.275 3.075 2.6
endloop
endfacet
facet normal 0 0 1
outer loop
vertex 7.083333 2.6 2.6
vertex 7.083333 3.9 2.6
vertex 6.275 3.425 2.6
endloop
endfacet
facet normal -0 0 1
outer loop
vertex 5.925 3.425 2.6
vertex 5.666667 3.9 2.6
vertex 5.666667 2.6 2.6
endloop
endfacet
facet normal -0 -0 1
outer loop
vertex 6.275 3.425 2.6
vertex 6.275 3.075 2.6
vertex 7.083333 2.6 2.6
endloop
endfacet
facet normal -0 0 1
outer loop
vertex 6.275 3.075 2.6
vertex 5.925 3.075 2.6
vertex 5.666667 2.6 2.6
endloop
endfacet
facet normal -0 0 1
outer loop
vertex 2.833333 3.9 2.6
vertex 1.416667 3.9 2.6
vertex 2.325 3.425 2.6
endloop
endfacet
facet normal 0 -0 1
outer loop
vertex 1.416667 2.6 2.6
vertex 2.325 3.075 2.6
vertex 2.325 3.425 2.6
endloop
endfacet
facet normal 0 0 1
outer loop
vertex 2.833333 2.6 2.6
vertex 2.675 3.075 2.6
vertex 2.325 3.075 2.6
endloop
endfacet
facet normal 0 0 1
outer loop
vertex 2.833333 2.6 2.6
vertex 2.833333 3.9 2.6
vertex 2.675 3.425 2.6
endloop
endfacet
facet normal -0 0 1
outer loop
vertex 2.325 3.425 2.6
vertex 1.416667 3.9 2.6
vertex 1.416667 2.6 2.6
endloop
endfacet
facet normal -0 -0 1
outer loop
vertex 2.675 3.425 2.6
vertex 2.675 3.075 2.6
vertex 2.833333 2.6 2.6
endloop
endfacet
facet normal 0 -0 1
outer loop
vertex 2.325 3.075 2.6
vertex 1.416667 2.6 2.6
vertex 2.833333 2.6 2.6
endloop
endfacet
facet normal 0 0 1
outer loop
vertex 1.416667 2.6 2.6
vertex 1.416667 3.9 2.6
vertex 0 3.714286 2.6
endloop
endfacet
facet normal -0 -0 1
outer loop
vertex 0 3.714286 2.6
vertex 0 2.785714 2.6
vertex 1.416667 2.6 2.6
endloop
endfacet
facet normal -0 0 1
outer loop
vertex 1.416667 3.9 2.6
vertex 0 3.9 2.6
vertex 0 3.714286 2.6
endloop
endfacet
facet normal 0 -0 1
outer loop
vertex 7.083333 2.6 2.6
vertex 7.083333 1.3 2.6
vertex 8.5 1.857143 2.6
endloop
endfacet
facet normal 0 -0 1
outer loop
vertex 7.083333 1.3 2.6
vertex 8.5 1.3 2.6
vertex 8.5 1.857143 2.6
endloop
endfacet
facet normal 0 0 1
outer loop
vertex 7.083333 1.3 2.6
vertex 7.083333 2.6 2.6
vertex 5.666667 2.6 2.6
endloop
endfacet
facet normal 0 0 1
outer loop
vertex 5.666667 1.3 2.6
vertex 5.666667 2.6 2.6
vertex 4.25 2.6 2.6
endloop
endfacet
facet normal 0 0 1
outer loop
vertex 4.25 1.3 2.6
vertex 4.25 2.6 2.6
vertex 2.833333 2.6 2.6
endloop
endfacet
facet normal 0 0 1
outer loop
vertex 2.833333 1.3 2.6
vertex 2.833333 2.6 2.6
vertex 1.416667 2.6 2.6
endloop
endfacet
facet normal -0 0 1
outer loop
vertex 1.416667 2.6 2.6
vertex 0 2.6 2.6
vertex 0 1.857143 2.6
endloop
endfacet
facet normal 0 -0 1
outer loop
vertex 0 1.857143 2.6
vertex 1.416667 1.3 2.6
vertex 1.416667 2.6 2.6
endloop
endfacet
facet normal -0 0 1
outer loop
vertex 8.5 0.9285714 2.6
vertex 7.083333 1.3 2.6
vertex 7.4375 0 2.6
endloop
endfacet
facet normal 0 -0 1
outer loop
vertex 7.4375 0 2.6
vertex 8.5 0 2.6
vertex 8.5 0.9285714 2.6
endloop
endfacet
facet normal 0 -0 1
outer loop
vertex 7.083333 1.3 2.6
vertex 7.083333 0 2.6
vertex 7.4375 0 2.6
endloop
endfacet
facet normal 0 -0 1
outer loop
vertex 5.666667 1.3 2.6
vertex 5.666667 0 2.6
vertex 6.375 0 2.6
endloop
endfacet
facet normal 0 0 1
outer loop
vertex 6.375 0 2.6
vertex 7.083333 1.3 2.6
vertex 5.666667 1.3 2.6
endloop
endfacet
facet normal 0 -0 1
outer loop
vertex 4.25 1.3 2.6
vertex 4.25 0 2.6
vertex 5.3125 0 2.6
endloop
endfacet
facet normal 0 0 1
outer loop
vertex 5.3125 0 2.6
vertex 5.666667 1.3 2.6
vertex 4.25 1.3 2.6
endloop
endfacet
facet normal -0 0 1
outer loop
vertex 4.25 1.3 2.6
vertex 2.833333 1.3 2.6
vertex 3.1875 0 2.6
endloop
endfacet
facet normal 0 -0 1
outer loop
vertex 2.833333 1.3 2.6
vertex 2.833333 0 2.6
vertex 3.1875 0 2.6
endloop
endfacet
facet normal 0 -0 1
outer loop
vertex 1.416667 1.3 2.6
vertex 1.416667 0 2.6
vertex 2.125 0 2.6
endloop
endfacet
facet normal 0 0 1
outer loop
vertex 2.125 0 2.6
vertex 2.833333 1.3 2.6
vertex 1.416667 1.3 2.6
endloop
endfacet
facet normal 0 -0 1
outer loop
vertex 0 0.9285714 2.6
vertex 0 0 2.6
vertex 1.0625 0 2.6
endloop
endfacet
facet normal -0 0 1
outer loop
vertex 1.416667 1.3 2.6
vertex 0 1.3 2.6
vertex 0 0.9285714 2.6
endloop
endfacet
facet normal 0 0 1
outer loop
vertex 1.0625 0 2.6
vertex 1.416667 1.3 2.6
vertex 0 0.9285714 2.6
endloop
endfacet
facet normal 0 0 1
outer loop
vertex 4.25 2.6 2.6
vertex 5.666667 2.6 2.6
vertex 4.85 2.75 2.6
endloop
endfacet
facet normal 0 0 1
outer loop
vertex 5.666667 2.6 2.6
vertex 5.666667 3.9 2.6
vertex 4.85 3.75 2.6
endloop
endfacet
facet normal -0 -0 1
outer loop
vertex 4.85 3.75 2.6
vertex 4.85 2.75 2.6
vertex 5.666667 2.6 2.6
endloop
endfacet
facet normal 0 -0 1
outer loop
vertex 4.25 3.9 2.6
vertex 4.25 3.75 2.6
vertex 4.85 3.75 2.6
endloop
endfacet
facet normal 0 0 1
outer loop
vertex 4.85 3.75 2.6
vertex 5.666667 3.9 2.6
vertex 4.25 3.9 2.6
endloop
endfacet
facet normal -0 0 1
outer loop
vertex 4.25 3.9 2.6
vertex 2.833333 3.9 2.6
vertex 3.85 3.75 2.6
endloop
endfacet
facet normal 0 -0 1
outer loop
vertex 2.833333 2.6 2.6
vertex 3.85 2.75 2.6
vertex 3.85 3.75 2.6
endloop
endfacet
facet normal -0 0 1
outer loop
vertex 3.85 3.75 2.6
vertex 2.833333 3.9 2.6
vertex 2.833333 2.6 2.6
endloop
endfacet
facet normal 0 0 1
outer loop
vertex 4.25 2.6 2.6
vertex 4.25 2.75 2.6
vertex 3.85 2.75 2.6
endloop
endfacet
facet normal 0 -0 1
outer loop
vertex 3.85 2.75 2.6
vertex 2.833333 2.6 2.6
vertex 4.25 2.6 2.6
endloop
endfacet
facet normal 0 -0 1
outer loop
vertex 3.85 3.75 2.6
vertex 4.25 3.75 2.6
vertex 4.25 3.9 2.6
endloop
endfacet
facet normal -0 0 1
outer loop
vertex 4.85 2.75 2.6
vertex 4.25 2.75 2.6
vertex 4.25 2.6 2.6
endloop
endfacet
facet normal 0 -0 1
outer loop
vertex 1.0625 0 2.6
vertex 1.416667 0 2.6
vertex 1.416667 1.3 2.6
endloop
endfacet
facet normal 0 -0 1
outer loop
vertex 2.125 0 2.6
vertex 2.833333 0 2.6
vertex 2.833333 1.3 2.6
endloop
endfacet
facet normal 0 -0 1
outer loop
vertex 3.1875 0 2.6
vertex 4.25 0 2.6
vertex 4.25 1.3 2.6
endloop
endfacet
facet normal 0 -0 1
outer loop
vertex 5.3125 0 2.6
vertex 5.666667 0 2.6
vertex 5.666667 1.3 2.6
endloop
endfacet
facet normal 0 -0 1
outer loop
vertex 6.375 0 2.6
vertex 7.083333 0 2.6
vertex 7.083333 1.3 2.6
endloop
endfacet
facet normal 0 0 1
outer loop
vertex 8.5 0.9285714 2.6
vertex 8.5 1.3 2.6
vertex 7.083333 1.3 2.6
endloop
endfacet
facet normal 0 -0 1
outer loop
vertex 0 1.857143 2.6
vertex 0 1.3 2.6
vertex 1.416667 1.3 2.6
endloop
endfacet
facet normal 0 -0 1
outer loop
vertex 1.416667 2.6 2.6
vertex 1.416667 1.3 2.6
vertex 2.833333 1.3 2.6
endloop
endfacet
facet normal 0 -0 1
outer loop
vertex 2.833333 2.6 2.6
vertex 2.833333 1.3 2.6
vertex 4.25 1.3 2.6
endloop
endfacet
facet normal 0 -0 1
outer loop
vertex 4.25 2.6 2.6
vertex 4.25 1.3 2.6
vertex 5.666667 1.3 2.6
endloop
endfacet
facet normal 0 -0 1
outer loop
vertex 5.666667 2.6 2.6
vertex 5.666667 1.3 2.6
vertex 7.083333 1.3 2.6
endloop
endfacet
facet normal 0 0 1
outer loop
vertex 8.5 1.857143 2.6
vertex 8.5 2.6 2.6
vertex 7.083333 2.6 2.6
endloop
endfacet
facet normal 0 -0 1
outer loop
vertex 0 2.785714 2.6
vertex 0 2.6 2.6
vertex 1.416667 2.6 2.6
endloop
endfacet
facet normal 0 -0 1
outer loop
vertex 2.325 3.425 2.6
vertex 2.675 3.425 2.6
vertex 2.833333 3.9 2.6
endloop
endfacet
facet normal 0 0 1
outer loop
vertex 6.275 3.425 2.6
vertex 7.083333 3.9 2.6
vertex 5.666667 3.9 2.6
endloop
endfacet
facet normal 0 0 1
outer loop
vertex 8.5 3.714286 2.6
vertex 8.5 3.9 2.6
vertex 7.083333 3.9 2.6
endloop
endfacet
facet normal 0 -0 1
outer loop
vertex 0 4.642857 2.6
vertex 0 3.9 2.6
vertex 1.416667 3.9 2.6
endloop
endfacet
facet normal 0 -0 1
outer loop
vertex 1.416667 5.2 2.6
vertex 1.416667 3.9 2.6
vertex 2.833333 3.9 2.6
endloop
endfacet
facet normal 0 -0 1
outer loop
vertex 2.833333 5.2 2.6
vertex 2.833333 3.9 2.6
vertex 4.25 3.9 2.6
endloop
endfacet
facet normal 0 -0 1
outer loop
vertex 4.25 5.2 2.6
vertex 4.25 3.9 2.6
vertex 5.666667 3.9 2.6
endloop
endfacet
facet normal 0 -0 1
outer loop
vertex 5.666667 5.2 2.6
vertex 5.666667 3.9 2.6
vertex 7.083333 3.9 2.6
endloop
endfacet
facet normal 0 0 1
outer loop
vertex 8.5 4.642857 2.6
vertex 8.5 5.2 2.6
vertex 7.083333 5.2 2.6
endloop
endfacet
facet normal 0 -0 1
outer loop
vertex 0 5.571429 2.6
vertex 0 5.2 2.6
vertex 1.416667 5.2 2.6
endloop
endfacet
facet normal -0 0 1
outer loop
vertex 2.125 6.5 2.6
vertex 1.416667 6.5 2.6
vertex 1.416667 5.2 2.6
endloop
endfacet
facet normal -0 0 1
outer loop
vertex 3.1875 6.5 2.6
vertex 2.833333 6.5 2.6
vertex 2.833333 5.2 2.6
endloop
endfacet
facet normal -0 0 1
outer loop
vertex 5.3125 6.5 2.6
vertex 4.25 6.5 2.6
vertex 4.25 5.2 2.6
endloop
endfacet
facet normal -0 0 1
outer loop
vertex 6.375 6.5 2.6
vertex 5.666667 6.5 2.6
vertex 5.666667 5.2 2.6
endloop
endfacet
facet normal -0 0 1
outer loop
vertex 7.4375 6.5 2.6
vertex 7.083333 6.5 2.6
vertex 7.083333 5.2 2.6
endloop
endfacet
endsolid 20210812_office_top_model5
