solid 20210812_aircon_outlets_model5
facet normal -0 -0.707106781186547 -0.707106781186547
outer loop
vertex 4.05 2.8 2.6
vertex 4.05 2.9 2.5
vertex 4.65 2.8 2.6
endloop
endfacet
facet normal 0 -0.707106781186547 -0.707106781186547
outer loop
vertex 4.65 2.8 2.6
vertex 4.05 2.9 2.5
vertex 4.65 2.9 2.5
endloop
endfacet
facet normal 0.707106781186549 0 -0.707106781186546
outer loop
vertex 4.8 2.95 2.6
vertex 4.7 2.95 2.5
vertex 4.8 3.55 2.6
endloop
endfacet
facet normal 0.707106781186549 0 -0.707106781186546
outer loop
vertex 4.8 3.55 2.6
vertex 4.7 2.95 2.5
vertex 4.7 3.55 2.5
endloop
endfacet
facet normal 0 0.707106781186547 -0.707106781186547
outer loop
vertex 4.65 3.7 2.6
vertex 4.65 3.6 2.5
vertex 4.05 3.7 2.6
endloop
endfacet
facet normal 0 0.707106781186547 -0.707106781186547
outer loop
vertex 4.05 3.7 2.6
vertex 4.65 3.6 2.5
vertex 4.05 3.6 2.5
endloop
endfacet
facet normal -0.707106781186548 0 -0.707106781186548
outer loop
vertex 3.9 3.55 2.6
vertex 4 3.55 2.5
vertex 3.9 2.95 2.6
endloop
endfacet
facet normal -0.707106781186548 -0 -0.707106781186548
outer loop
vertex 3.9 2.95 2.6
vertex 4 3.55 2.5
vertex 4 2.95 2.5
endloop
endfacet
endsolid 20210812_aircon_outlets_model5
