solid 20210812_office_top_model3
facet normal 0 0 -1
outer loop
vertex 0 6 2.6
vertex 4.875 3.225 2.6
vertex 4 3.5 2.6
endloop
endfacet
facet normal -0 -0 -1
outer loop
vertex 1.875 3.225 2.6
vertex 0 6 2.6
vertex 2.225 3.225 2.6
endloop
endfacet
facet normal -0 -0 -1
outer loop
vertex 3 3.5 2.6
vertex 0 6 2.6
vertex 4 3.5 2.6
endloop
endfacet
facet normal 0 0 -1
outer loop
vertex 3 3.5 2.6
vertex 2.225 3.225 2.6
vertex 0 6 2.6
endloop
endfacet
facet normal 0 0 -1
outer loop
vertex 3 2.5 2.6
vertex 2.225 3.225 2.6
vertex 3 3.5 2.6
endloop
endfacet
facet normal 0 -0 -1
outer loop
vertex 0 0 2.6
vertex 0 6 2.6
vertex 1.875 2.875 2.6
endloop
endfacet
facet normal 0 0 -1
outer loop
vertex 1.875 3.225 2.6
vertex 1.875 2.875 2.6
vertex 0 6 2.6
endloop
endfacet
facet normal 0 0 -1
outer loop
vertex 7 0 2.6
vertex 0 0 2.6
vertex 2.225 2.875 2.6
endloop
endfacet
facet normal 0 0 -1
outer loop
vertex 7 0 2.6
vertex 2.225 2.875 2.6
vertex 3 2.5 2.6
endloop
endfacet
facet normal -0 0 -1
outer loop
vertex 1.875 2.875 2.6
vertex 2.225 2.875 2.6
vertex 0 0 2.6
endloop
endfacet
facet normal 0 0 -1
outer loop
vertex 4 2.5 2.6
vertex 7 0 2.6
vertex 3 2.5 2.6
endloop
endfacet
facet normal 0 0 -1
outer loop
vertex 5.225 2.875 2.6
vertex 7 0 2.6
vertex 4.875 2.875 2.6
endloop
endfacet
facet normal 0 0 -1
outer loop
vertex 2.225 3.225 2.6
vertex 3 2.5 2.6
vertex 2.225 2.875 2.6
endloop
endfacet
facet normal -0 -0 -1
outer loop
vertex 4 2.5 2.6
vertex 4.875 2.875 2.6
vertex 7 0 2.6
endloop
endfacet
facet normal -0 0 -1
outer loop
vertex 4 3.5 2.6
vertex 4.875 2.875 2.6
vertex 4 2.5 2.6
endloop
endfacet
facet normal -0 0 -1
outer loop
vertex 5.225 3.225 2.6
vertex 7 6 2.6
vertex 5.225 2.875 2.6
endloop
endfacet
facet normal -0 0 -1
outer loop
vertex 0 6 2.6
vertex 7 6 2.6
vertex 4.875 3.225 2.6
endloop
endfacet
facet normal 0 0 -1
outer loop
vertex 7 0 2.6
vertex 5.225 2.875 2.6
vertex 7 6 2.6
endloop
endfacet
facet normal 0 0 -1
outer loop
vertex 4.875 2.875 2.6
vertex 4 3.5 2.6
vertex 4.875 3.225 2.6
endloop
endfacet
facet normal 0 -0 -1
outer loop
vertex 5.225 3.225 2.6
vertex 4.875 3.225 2.6
vertex 7 6 2.6
endloop
endfacet
endsolid 20210812_office_top_model3
