solid 20210812_office_top_model2
facet normal -0 0 -1
outer loop
vertex 5 2.5 2.6
vertex 9 4 2.6
vertex 5.825 2.175 2.6
endloop
endfacet
facet normal -0 0 -1
outer loop
vertex 0 4 2.6
vertex 9 4 2.6
vertex 4 2.5 2.6
endloop
endfacet
facet normal 0 -0 -1
outer loop
vertex 5 2.5 2.6
vertex 4 2.5 2.6
vertex 9 4 2.6
endloop
endfacet
facet normal -0 -0 -1
outer loop
vertex 2.825 2.175 2.6
vertex 0 4 2.6
vertex 3.175 2.175 2.6
endloop
endfacet
facet normal 0 0 -1
outer loop
vertex 4 2.5 2.6
vertex 3.175 2.175 2.6
vertex 0 4 2.6
endloop
endfacet
facet normal 0 -0 -1
outer loop
vertex 0 0 2.6
vertex 0 4 2.6
vertex 2.825 1.825 2.6
endloop
endfacet
facet normal 0 0 -1
outer loop
vertex 2.825 2.175 2.6
vertex 2.825 1.825 2.6
vertex 0 4 2.6
endloop
endfacet
facet normal 0 0 -1
outer loop
vertex 4 1.5 2.6
vertex 0 0 2.6
vertex 3.175 1.825 2.6
endloop
endfacet
facet normal -0 0 -1
outer loop
vertex 2.825 1.825 2.6
vertex 3.175 1.825 2.6
vertex 0 0 2.6
endloop
endfacet
facet normal 0 0 -1
outer loop
vertex 4 2.5 2.6
vertex 4 1.5 2.6
vertex 3.175 2.175 2.6
endloop
endfacet
facet normal -0 -0 -1
outer loop
vertex 3.175 1.825 2.6
vertex 3.175 2.175 2.6
vertex 4 1.5 2.6
endloop
endfacet
facet normal 0 0 -1
outer loop
vertex 9 0 2.6
vertex 0 0 2.6
vertex 5 1.5 2.6
endloop
endfacet
facet normal 0 0 -1
outer loop
vertex 6.175 1.825 2.6
vertex 9 0 2.6
vertex 5.825 1.825 2.6
endloop
endfacet
facet normal -0 0 -1
outer loop
vertex 4 1.5 2.6
vertex 5 1.5 2.6
vertex 0 0 2.6
endloop
endfacet
facet normal -0 -0 -1
outer loop
vertex 5 1.5 2.6
vertex 5.825 1.825 2.6
vertex 9 0 2.6
endloop
endfacet
facet normal -0 0 -1
outer loop
vertex 5 2.5 2.6
vertex 5.825 1.825 2.6
vertex 5 1.5 2.6
endloop
endfacet
facet normal 0 0 -1
outer loop
vertex 9 4 2.6
vertex 9 0 2.6
vertex 6.175 2.175 2.6
endloop
endfacet
facet normal -0 -0 -1
outer loop
vertex 6.175 1.825 2.6
vertex 6.175 2.175 2.6
vertex 9 0 2.6
endloop
endfacet
facet normal 0 0 -1
outer loop
vertex 5.825 1.825 2.6
vertex 5 2.5 2.6
vertex 5.825 2.175 2.6
endloop
endfacet
facet normal 0 -0 -1
outer loop
vertex 6.175 2.175 2.6
vertex 5.825 2.175 2.6
vertex 9 4 2.6
endloop
endfacet
endsolid 20210812_office_top_model2
