solid office_top
  facet normal    0.000000e+00    0.000000e+00    1.000000e+00
    outer loop
      vertex      6.325000e+00    2.675000e+00    2.600000e+00
      vertex      0.000000e+00    5.000000e+00    2.600000e+00
      vertex      5.000000e+00    3.000000e+00    2.600000e+00
    endloop
  endfacet
  facet normal    0.000000e+00    0.000000e+00    1.000000e+00
    outer loop
      vertex      4.000000e+00    3.000000e+00    2.600000e+00
      vertex      0.000000e+00    5.000000e+00    2.600000e+00
      vertex      2.675000e+00    2.675000e+00    2.600000e+00
    endloop
  endfacet
  facet normal   -0.000000e+00    0.000000e+00    1.000000e+00
    outer loop
      vertex      0.000000e+00    5.000000e+00    2.600000e+00
      vertex      4.000000e+00    3.000000e+00    2.600000e+00
      vertex      5.000000e+00    3.000000e+00    2.600000e+00
    endloop
  endfacet
  facet normal   -0.000000e+00    0.000000e+00    1.000000e+00
    outer loop
      vertex      0.000000e+00    5.000000e+00    2.600000e+00
      vertex      2.325000e+00    2.675000e+00    2.600000e+00
      vertex      2.675000e+00    2.675000e+00    2.600000e+00
    endloop
  endfacet
  facet normal   -0.000000e+00    0.000000e+00    1.000000e+00
    outer loop
      vertex      2.675000e+00    2.675000e+00    2.600000e+00
      vertex      4.000000e+00    2.000000e+00    2.600000e+00
      vertex      4.000000e+00    3.000000e+00    2.600000e+00
    endloop
  endfacet
  facet normal   -0.000000e+00    0.000000e+00    1.000000e+00
    outer loop
      vertex      0.000000e+00    5.000000e+00    2.600000e+00
      vertex      0.000000e+00    0.000000e+00    2.600000e+00
      vertex      2.325000e+00    2.325000e+00    2.600000e+00
    endloop
  endfacet
  facet normal    0.000000e+00   -0.000000e+00    1.000000e+00
    outer loop
      vertex      2.325000e+00    2.325000e+00    2.600000e+00
      vertex      2.325000e+00    2.675000e+00    2.600000e+00
      vertex      0.000000e+00    5.000000e+00    2.600000e+00
    endloop
  endfacet
  facet normal    0.000000e+00   -0.000000e+00    1.000000e+00
    outer loop
      vertex      0.000000e+00    0.000000e+00    2.600000e+00
      vertex      9.000000e+00    0.000000e+00    2.600000e+00
      vertex      2.675000e+00    2.325000e+00    2.600000e+00
    endloop
  endfacet
  facet normal   -0.000000e+00   -0.000000e+00    1.000000e+00
    outer loop
      vertex      2.675000e+00    2.325000e+00    2.600000e+00
      vertex      9.000000e+00    0.000000e+00    2.600000e+00
      vertex      4.000000e+00    2.000000e+00    2.600000e+00
    endloop
  endfacet
  facet normal    0.000000e+00    0.000000e+00    1.000000e+00
    outer loop
      vertex      2.675000e+00    2.325000e+00    2.600000e+00
      vertex      2.325000e+00    2.325000e+00    2.600000e+00
      vertex      0.000000e+00    0.000000e+00    2.600000e+00
    endloop
  endfacet
  facet normal    0.000000e+00    0.000000e+00    1.000000e+00
    outer loop
      vertex      9.000000e+00    0.000000e+00    2.600000e+00
      vertex      5.000000e+00    2.000000e+00    2.600000e+00
      vertex      4.000000e+00    2.000000e+00    2.600000e+00
    endloop
  endfacet
  facet normal   -0.000000e+00   -0.000000e+00    1.000000e+00
    outer loop
      vertex      5.000000e+00    2.000000e+00    2.600000e+00
      vertex      9.000000e+00    0.000000e+00    2.600000e+00
      vertex      6.325000e+00    2.325000e+00    2.600000e+00
    endloop
  endfacet
  facet normal    0.000000e+00    0.000000e+00    1.000000e+00
    outer loop
      vertex      4.000000e+00    2.000000e+00    2.600000e+00
      vertex      2.675000e+00    2.675000e+00    2.600000e+00
      vertex      2.675000e+00    2.325000e+00    2.600000e+00
    endloop
  endfacet
  facet normal    0.000000e+00    0.000000e+00    1.000000e+00
    outer loop
      vertex      9.000000e+00    0.000000e+00    2.600000e+00
      vertex      6.675000e+00    2.325000e+00    2.600000e+00
      vertex      6.325000e+00    2.325000e+00    2.600000e+00
    endloop
  endfacet
  facet normal    0.000000e+00    0.000000e+00    1.000000e+00
    outer loop
      vertex      6.325000e+00    2.325000e+00    2.600000e+00
      vertex      5.000000e+00    3.000000e+00    2.600000e+00
      vertex      5.000000e+00    2.000000e+00    2.600000e+00
    endloop
  endfacet
  facet normal    0.000000e+00   -0.000000e+00    1.000000e+00
    outer loop
      vertex      9.000000e+00    0.000000e+00    2.600000e+00
      vertex      9.000000e+00    5.000000e+00    2.600000e+00
      vertex      6.675000e+00    2.675000e+00    2.600000e+00
    endloop
  endfacet
  facet normal    0.000000e+00    0.000000e+00    1.000000e+00
    outer loop
      vertex      9.000000e+00    5.000000e+00    2.600000e+00
      vertex      0.000000e+00    5.000000e+00    2.600000e+00
      vertex      6.325000e+00    2.675000e+00    2.600000e+00
    endloop
  endfacet
  facet normal    0.000000e+00    0.000000e+00    1.000000e+00
    outer loop
      vertex      6.675000e+00    2.675000e+00    2.600000e+00
      vertex      6.675000e+00    2.325000e+00    2.600000e+00
      vertex      9.000000e+00    0.000000e+00    2.600000e+00
    endloop
  endfacet
  facet normal   -0.000000e+00    0.000000e+00    1.000000e+00
    outer loop
      vertex      5.000000e+00    3.000000e+00    2.600000e+00
      vertex      6.325000e+00    2.325000e+00    2.600000e+00
      vertex      6.325000e+00    2.675000e+00    2.600000e+00
    endloop
  endfacet
  facet normal    0.000000e+00    0.000000e+00    1.000000e+00
    outer loop
      vertex      6.325000e+00    2.675000e+00    2.600000e+00
      vertex      6.675000e+00    2.675000e+00    2.600000e+00
      vertex      9.000000e+00    5.000000e+00    2.600000e+00
    endloop
  endfacet
endsolid office_top
