solid 20210812_office_top_model6
facet normal 0 0 1
outer loop
vertex 9.5 5 2.6
vertex 9.5 6 2.6
vertex 8.444444 6 2.6
endloop
endfacet
facet normal 0 -0 1
outer loop
vertex 8.444444 6 2.6
vertex 7.916667 4.5 2.6
vertex 9.5 5 2.6
endloop
endfacet
facet normal 0 -0 1
outer loop
vertex 7.916667 4.5 2.6
vertex 9.5 4.5 2.6
vertex 9.5 5 2.6
endloop
endfacet
facet normal 0 0 1
outer loop
vertex 6.333333 4.5 2.6
vertex 7.916667 4.5 2.6
vertex 7.388889 6 2.6
endloop
endfacet
facet normal 0 0 1
outer loop
vertex 7.916667 4.5 2.6
vertex 7.916667 6 2.6
vertex 7.388889 6 2.6
endloop
endfacet
facet normal 0 0 1
outer loop
vertex 6.333333 4.5 2.6
vertex 6.333333 6 2.6
vertex 5.277778 6 2.6
endloop
endfacet
facet normal 0 -0 1
outer loop
vertex 5.277778 6 2.6
vertex 4.75 4.5 2.6
vertex 6.333333 4.5 2.6
endloop
endfacet
facet normal 0 0 1
outer loop
vertex 3.166667 4.5 2.6
vertex 4.75 4.5 2.6
vertex 4.222222 6 2.6
endloop
endfacet
facet normal 0 0 1
outer loop
vertex 4.75 4.5 2.6
vertex 4.75 6 2.6
vertex 4.222222 6 2.6
endloop
endfacet
facet normal 0 0 1
outer loop
vertex 3.166667 4.5 2.6
vertex 3.166667 6 2.6
vertex 2.111111 6 2.6
endloop
endfacet
facet normal 0 -0 1
outer loop
vertex 2.111111 6 2.6
vertex 1.583333 4.5 2.6
vertex 3.166667 4.5 2.6
endloop
endfacet
facet normal 0 0 1
outer loop
vertex 0 5 2.6
vertex 1.583333 4.5 2.6
vertex 1.055556 6 2.6
endloop
endfacet
facet normal -0 0 1
outer loop
vertex 1.055556 6 2.6
vertex 0 6 2.6
vertex 0 5 2.6
endloop
endfacet
facet normal 0 0 1
outer loop
vertex 1.583333 4.5 2.6
vertex 1.583333 6 2.6
vertex 1.055556 6 2.6
endloop
endfacet
facet normal 0 -0 1
outer loop
vertex 7.916667 3 2.6
vertex 9.5 3 2.6
vertex 9.5 4 2.6
endloop
endfacet
facet normal -0 0 1
outer loop
vertex 9.5 4 2.6
vertex 7.916667 4.5 2.6
vertex 7.916667 3 2.6
endloop
endfacet
facet normal 0 0 1
outer loop
vertex 1.583333 3 2.6
vertex 1.583333 4.5 2.6
vertex 0 4 2.6
endloop
endfacet
facet normal -0 0 1
outer loop
vertex 1.583333 4.5 2.6
vertex 0 4.5 2.6
vertex 0 4 2.6
endloop
endfacet
facet normal 0 -0 1
outer loop
vertex 7.916667 3 2.6
vertex 7.916667 1.5 2.6
vertex 9.5 2 2.6
endloop
endfacet
facet normal 0 -0 1
outer loop
vertex 7.916667 1.5 2.6
vertex 9.5 1.5 2.6
vertex 9.5 2 2.6
endloop
endfacet
facet normal -0 0 1
outer loop
vertex 1.583333 3 2.6
vertex 0 3 2.6
vertex 0 2 2.6
endloop
endfacet
facet normal 0 -0 1
outer loop
vertex 0 2 2.6
vertex 1.583333 1.5 2.6
vertex 1.583333 3 2.6
endloop
endfacet
facet normal -0 0 1
outer loop
vertex 9.5 1 2.6
vertex 7.916667 1.5 2.6
vertex 8.444444 0 2.6
endloop
endfacet
facet normal 0 -0 1
outer loop
vertex 8.444444 0 2.6
vertex 9.5 0 2.6
vertex 9.5 1 2.6
endloop
endfacet
facet normal 0 -0 1
outer loop
vertex 7.916667 1.5 2.6
vertex 7.916667 0 2.6
vertex 8.444444 0 2.6
endloop
endfacet
facet normal 0 -0 1
outer loop
vertex 6.333333 1.5 2.6
vertex 6.333333 0 2.6
vertex 7.388889 0 2.6
endloop
endfacet
facet normal 0 0 1
outer loop
vertex 7.388889 0 2.6
vertex 7.916667 1.5 2.6
vertex 6.333333 1.5 2.6
endloop
endfacet
facet normal -0 0 1
outer loop
vertex 6.333333 1.5 2.6
vertex 4.75 1.5 2.6
vertex 5.277778 0 2.6
endloop
endfacet
facet normal 0 -0 1
outer loop
vertex 4.75 1.5 2.6
vertex 4.75 0 2.6
vertex 5.277778 0 2.6
endloop
endfacet
facet normal 0 -0 1
outer loop
vertex 3.166667 1.5 2.6
vertex 3.166667 0 2.6
vertex 4.222222 0 2.6
endloop
endfacet
facet normal 0 0 1
outer loop
vertex 4.222222 0 2.6
vertex 4.75 1.5 2.6
vertex 3.166667 1.5 2.6
endloop
endfacet
facet normal -0 0 1
outer loop
vertex 3.166667 1.5 2.6
vertex 1.583333 1.5 2.6
vertex 2.111111 0 2.6
endloop
endfacet
facet normal 0 -0 1
outer loop
vertex 1.583333 1.5 2.6
vertex 1.583333 0 2.6
vertex 2.111111 0 2.6
endloop
endfacet
facet normal 0 -0 1
outer loop
vertex 0 1 2.6
vertex 0 0 2.6
vertex 1.055556 0 2.6
endloop
endfacet
facet normal -0 0 1
outer loop
vertex 1.583333 1.5 2.6
vertex 0 1.5 2.6
vertex 0 1 2.6
endloop
endfacet
facet normal 0 0 1
outer loop
vertex 1.055556 0 2.6
vertex 1.583333 1.5 2.6
vertex 0 1 2.6
endloop
endfacet
facet normal -0 0 1
outer loop
vertex 4.75 4.5 2.6
vertex 3.166667 4.5 2.6
vertex 4.35 3.5 2.6
endloop
endfacet
facet normal 0 -0 1
outer loop
vertex 3.166667 3 2.6
vertex 4.35 3 2.6
vertex 4.35 3.5 2.6
endloop
endfacet
facet normal -0 0 1
outer loop
vertex 4.35 3.5 2.6
vertex 3.166667 4.5 2.6
vertex 3.166667 3 2.6
endloop
endfacet
facet normal 0 0 1
outer loop
vertex 6.333333 3 2.6
vertex 6.333333 4.5 2.6
vertex 5.35 3.5 2.6
endloop
endfacet
facet normal 0 -0 1
outer loop
vertex 4.75 4.5 2.6
vertex 4.75 3.5 2.6
vertex 5.35 3.5 2.6
endloop
endfacet
facet normal 0 0 1
outer loop
vertex 5.35 3.5 2.6
vertex 6.333333 4.5 2.6
vertex 4.75 4.5 2.6
endloop
endfacet
facet normal 0 0 1
outer loop
vertex 4.75 1.5 2.6
vertex 6.333333 1.5 2.6
vertex 5.35 2.5 2.6
endloop
endfacet
facet normal -0 0 1
outer loop
vertex 6.333333 3 2.6
vertex 5.35 3 2.6
vertex 5.35 2.5 2.6
endloop
endfacet
facet normal 0 -0 1
outer loop
vertex 5.35 2.5 2.6
vertex 6.333333 1.5 2.6
vertex 6.333333 3 2.6
endloop
endfacet
facet normal 0 -0 1
outer loop
vertex 3.166667 3 2.6
vertex 3.166667 1.5 2.6
vertex 4.35 2.5 2.6
endloop
endfacet
facet normal 0 0 1
outer loop
vertex 4.75 1.5 2.6
vertex 4.75 2.5 2.6
vertex 4.35 2.5 2.6
endloop
endfacet
facet normal 0 -0 1
outer loop
vertex 4.35 2.5 2.6
vertex 3.166667 1.5 2.6
vertex 4.75 1.5 2.6
endloop
endfacet
facet normal 0 0 1
outer loop
vertex 7.916667 3 2.6
vertex 7.916667 4.5 2.6
vertex 7.275 3.175 2.6
endloop
endfacet
facet normal 0 -0 1
outer loop
vertex 6.333333 4.5 2.6
vertex 6.925 3.175 2.6
vertex 7.275 3.175 2.6
endloop
endfacet
facet normal 0 0 1
outer loop
vertex 7.275 3.175 2.6
vertex 7.916667 4.5 2.6
vertex 6.333333 4.5 2.6
endloop
endfacet
facet normal 0 -0 1
outer loop
vertex 6.333333 3 2.6
vertex 6.925 3 2.6
vertex 6.925 3.175 2.6
endloop
endfacet
facet normal -0 0 1
outer loop
vertex 6.925 3.175 2.6
vertex 6.333333 4.5 2.6
vertex 6.333333 3 2.6
endloop
endfacet
facet normal 0 0 1
outer loop
vertex 6.333333 1.5 2.6
vertex 7.916667 1.5 2.6
vertex 7.275 2.825 2.6
endloop
endfacet
facet normal -0 0 1
outer loop
vertex 7.916667 3 2.6
vertex 7.275 3 2.6
vertex 7.275 2.825 2.6
endloop
endfacet
facet normal 0 -0 1
outer loop
vertex 6.333333 3 2.6
vertex 6.333333 1.5 2.6
vertex 6.925 2.825 2.6
endloop
endfacet
facet normal 0 -0 1
outer loop
vertex 7.275 2.825 2.6
vertex 7.916667 1.5 2.6
vertex 7.916667 3 2.6
endloop
endfacet
facet normal -0 0 1
outer loop
vertex 7.275 2.825 2.6
vertex 6.925 2.825 2.6
vertex 6.333333 1.5 2.6
endloop
endfacet
facet normal 0 0 1
outer loop
vertex 3.166667 3 2.6
vertex 3.166667 4.5 2.6
vertex 2.675 3.175 2.6
endloop
endfacet
facet normal -0 0 1
outer loop
vertex 3.166667 4.5 2.6
vertex 1.583333 4.5 2.6
vertex 2.325 3.175 2.6
endloop
endfacet
facet normal 0 -0 1
outer loop
vertex 2.325 3.175 2.6
vertex 2.675 3.175 2.6
vertex 3.166667 4.5 2.6
endloop
endfacet
facet normal 0 -0 1
outer loop
vertex 1.583333 3 2.6
vertex 2.325 3 2.6
vertex 2.325 3.175 2.6
endloop
endfacet
facet normal -0 0 1
outer loop
vertex 2.325 3.175 2.6
vertex 1.583333 4.5 2.6
vertex 1.583333 3 2.6
endloop
endfacet
facet normal 0 0 1
outer loop
vertex 3.166667 1.5 2.6
vertex 2.675 2.825 2.6
vertex 2.325 2.825 2.6
endloop
endfacet
facet normal -0 0 1
outer loop
vertex 3.166667 3 2.6
vertex 2.675 3 2.6
vertex 2.675 2.825 2.6
endloop
endfacet
facet normal 0 -0 1
outer loop
vertex 1.583333 3 2.6
vertex 1.583333 1.5 2.6
vertex 2.325 2.825 2.6
endloop
endfacet
facet normal 0 -0 1
outer loop
vertex 2.675 2.825 2.6
vertex 3.166667 1.5 2.6
vertex 3.166667 3 2.6
endloop
endfacet
facet normal 0 -0 1
outer loop
vertex 2.325 2.825 2.6
vertex 1.583333 1.5 2.6
vertex 3.166667 1.5 2.6
endloop
endfacet
facet normal 0 0 1
outer loop
vertex 2.325 2.825 2.6
vertex 2.325 3 2.6
vertex 1.583333 3 2.6
endloop
endfacet
facet normal 0 -0 1
outer loop
vertex 2.675 3.175 2.6
vertex 2.675 3 2.6
vertex 3.166667 3 2.6
endloop
endfacet
facet normal 0 0 1
outer loop
vertex 6.925 2.825 2.6
vertex 6.925 3 2.6
vertex 6.333333 3 2.6
endloop
endfacet
facet normal 0 -0 1
outer loop
vertex 7.275 3.175 2.6
vertex 7.275 3 2.6
vertex 7.916667 3 2.6
endloop
endfacet
facet normal 0 0 1
outer loop
vertex 4.35 2.5 2.6
vertex 4.35 3 2.6
vertex 3.166667 3 2.6
endloop
endfacet
facet normal -0 0 1
outer loop
vertex 5.35 2.5 2.6
vertex 4.75 2.5 2.6
vertex 4.75 1.5 2.6
endloop
endfacet
facet normal 0 -0 1
outer loop
vertex 5.35 3.5 2.6
vertex 5.35 3 2.6
vertex 6.333333 3 2.6
endloop
endfacet
facet normal 0 -0 1
outer loop
vertex 4.35 3.5 2.6
vertex 4.75 3.5 2.6
vertex 4.75 4.5 2.6
endloop
endfacet
facet normal 0 -0 1
outer loop
vertex 1.055556 0 2.6
vertex 1.583333 0 2.6
vertex 1.583333 1.5 2.6
endloop
endfacet
facet normal 0 -0 1
outer loop
vertex 2.111111 0 2.6
vertex 3.166667 0 2.6
vertex 3.166667 1.5 2.6
endloop
endfacet
facet normal 0 -0 1
outer loop
vertex 4.222222 0 2.6
vertex 4.75 0 2.6
vertex 4.75 1.5 2.6
endloop
endfacet
facet normal 0 -0 1
outer loop
vertex 5.277778 0 2.6
vertex 6.333333 0 2.6
vertex 6.333333 1.5 2.6
endloop
endfacet
facet normal 0 -0 1
outer loop
vertex 7.388889 0 2.6
vertex 7.916667 0 2.6
vertex 7.916667 1.5 2.6
endloop
endfacet
facet normal 0 0 1
outer loop
vertex 9.5 1 2.6
vertex 9.5 1.5 2.6
vertex 7.916667 1.5 2.6
endloop
endfacet
facet normal 0 -0 1
outer loop
vertex 0 2 2.6
vertex 0 1.5 2.6
vertex 1.583333 1.5 2.6
endloop
endfacet
facet normal 0 0 1
outer loop
vertex 9.5 2 2.6
vertex 9.5 3 2.6
vertex 7.916667 3 2.6
endloop
endfacet
facet normal 0 -0 1
outer loop
vertex 0 4 2.6
vertex 0 3 2.6
vertex 1.583333 3 2.6
endloop
endfacet
facet normal 0 0 1
outer loop
vertex 9.5 4 2.6
vertex 9.5 4.5 2.6
vertex 7.916667 4.5 2.6
endloop
endfacet
facet normal 0 -0 1
outer loop
vertex 0 5 2.6
vertex 0 4.5 2.6
vertex 1.583333 4.5 2.6
endloop
endfacet
facet normal -0 0 1
outer loop
vertex 2.111111 6 2.6
vertex 1.583333 6 2.6
vertex 1.583333 4.5 2.6
endloop
endfacet
facet normal -0 0 1
outer loop
vertex 4.222222 6 2.6
vertex 3.166667 6 2.6
vertex 3.166667 4.5 2.6
endloop
endfacet
facet normal -0 0 1
outer loop
vertex 5.277778 6 2.6
vertex 4.75 6 2.6
vertex 4.75 4.5 2.6
endloop
endfacet
facet normal -0 0 1
outer loop
vertex 7.388889 6 2.6
vertex 6.333333 6 2.6
vertex 6.333333 4.5 2.6
endloop
endfacet
facet normal -0 0 1
outer loop
vertex 8.444444 6 2.6
vertex 7.916667 6 2.6
vertex 7.916667 4.5 2.6
endloop
endfacet
endsolid 20210812_office_top_model6
