solid office_side4
  facet normal   -0.000000e+00    1.000000e+00    0.000000e+00
    outer loop
      vertex      0.000000e+00    5.000000e+00    0.000000e+00
      vertex      0.000000e+00    5.000000e+00    2.600000e+00
      vertex      9.000000e+00    5.000000e+00    2.600000e+00
    endloop
  endfacet
  facet normal   -0.000000e+00    1.000000e+00    0.000000e+00
    outer loop
      vertex      0.000000e+00    5.000000e+00    0.000000e+00
      vertex      9.000000e+00    5.000000e+00    2.600000e+00
      vertex      9.000000e+00    5.000000e+00    0.000000e+00
    endloop
  endfacet
endsolid office_side4
