solid 20210812_aircon_outlets_model2
facet normal -0 -0.707106781186548 -0.707106781186547
outer loop
vertex 4.2 1.55 2.6
vertex 4.2 1.65 2.5
vertex 4.8 1.55 2.6
endloop
endfacet
facet normal 0 -0.707106781186548 -0.707106781186547
outer loop
vertex 4.8 1.55 2.6
vertex 4.2 1.65 2.5
vertex 4.8 1.65 2.5
endloop
endfacet
facet normal 0.707106781186546 0 -0.707106781186549
outer loop
vertex 4.95 1.7 2.6
vertex 4.85 1.7 2.5
vertex 4.95 2.3 2.6
endloop
endfacet
facet normal 0.707106781186546 0 -0.707106781186549
outer loop
vertex 4.95 2.3 2.6
vertex 4.85 1.7 2.5
vertex 4.85 2.3 2.5
endloop
endfacet
facet normal 0 0.707106781186548 -0.707106781186548
outer loop
vertex 4.8 2.45 2.6
vertex 4.8 2.35 2.5
vertex 4.2 2.45 2.6
endloop
endfacet
facet normal 0 0.707106781186548 -0.707106781186548
outer loop
vertex 4.2 2.45 2.6
vertex 4.8 2.35 2.5
vertex 4.2 2.35 2.5
endloop
endfacet
facet normal -0.707106781186546 0 -0.707106781186549
outer loop
vertex 4.05 2.3 2.6
vertex 4.15 2.3 2.5
vertex 4.05 1.7 2.6
endloop
endfacet
facet normal -0.707106781186546 -0 -0.707106781186549
outer loop
vertex 4.05 1.7 2.6
vertex 4.15 2.3 2.5
vertex 4.15 1.7 2.5
endloop
endfacet
endsolid 20210812_aircon_outlets_model2
