solid aircon_outlets
facet normal -0 -0.707106781186548 -0.707106781186548
outer loop
vertex 2.7 2.3 2.6
vertex 2.7 2.4 2.5
vertex 3.3 2.3 2.6
endloop
endfacet
facet normal 0 -0.707106781186548 -0.707106781186548
outer loop
vertex 3.3 2.3 2.6
vertex 2.7 2.4 2.5
vertex 3.3 2.4 2.5
endloop
endfacet
facet normal 0.707106781186548 0 -0.707106781186548
outer loop
vertex 3.45 2.45 2.6
vertex 3.35 2.45 2.5
vertex 3.45 3.05 2.6
endloop
endfacet
facet normal 0.707106781186548 0 -0.707106781186548
outer loop
vertex 3.45 3.05 2.6
vertex 3.35 2.45 2.5
vertex 3.35 3.05 2.5
endloop
endfacet
facet normal 0 0.707106781186548 -0.707106781186548
outer loop
vertex 3.3 3.2 2.6
vertex 3.3 3.1 2.5
vertex 2.7 3.2 2.6
endloop
endfacet
facet normal 0 0.707106781186548 -0.707106781186548
outer loop
vertex 2.7 3.2 2.6
vertex 3.3 3.1 2.5
vertex 2.7 3.1 2.5
endloop
endfacet
facet normal -0.707106781186548 0 -0.707106781186548
outer loop
vertex 2.55 3.05 2.6
vertex 2.65 3.05 2.5
vertex 2.55 2.45 2.6
endloop
endfacet
facet normal -0.707106781186548 -0 -0.707106781186548
outer loop
vertex 2.55 2.45 2.6
vertex 2.65 3.05 2.5
vertex 2.65 2.45 2.5
endloop
endfacet
endsolid aircon_outlets
